<mxfile host="app.diagrams.net" modified="2023-12-14T03:08:41.395Z" agent="Mozilla/5.0 (Windows NT 10.0; Win64; x64) AppleWebKit/537.36 (KHTML, like Gecko) Chrome/120.0.0.0 Safari/537.36 Edg/120.0.0.0" etag="lMGZj65G0AsnUAnsTdRM" version="22.1.8" type="device">
  <diagram name="Страница — 1" id="GkFTApmVzw5ug4bYa68v">
    <mxGraphModel dx="1823" dy="649" grid="1" gridSize="10" guides="1" tooltips="1" connect="1" arrows="1" fold="1" page="1" pageScale="1" pageWidth="827" pageHeight="1169" math="0" shadow="0">
      <root>
        <mxCell id="0" />
        <mxCell id="1" parent="0" />
        <mxCell id="0786FK1Go5w6G7k6XAwr-1" value="&lt;span style=&quot;&quot; id=&quot;docs-internal-guid-36fbc556-7fff-6ebc-dd4b-fb18f65ab0c7&quot;&gt;&lt;span style=&quot;font-size: 11pt; font-family: Arial, sans-serif; color: rgb(0, 0, 0); background-color: transparent; font-style: normal; font-variant: normal; text-decoration: none; vertical-align: baseline;&quot;&gt;Диаграмма состояний персонажа игры жанра «платформер»&lt;br&gt;&lt;/span&gt;&lt;/span&gt;" style="text;whiteSpace=wrap;html=1;" parent="1" vertex="1">
          <mxGeometry x="-792" y="30" width="470" height="40" as="geometry" />
        </mxCell>
        <mxCell id="rIHE5OdXVTmZaE9A2tO--2" style="edgeStyle=orthogonalEdgeStyle;rounded=0;orthogonalLoop=1;jettySize=auto;html=1;" parent="1" source="VwlWi9e6gNMVtjzTpTl0-1" target="rIHE5OdXVTmZaE9A2tO--1" edge="1">
          <mxGeometry relative="1" as="geometry" />
        </mxCell>
        <mxCell id="VwlWi9e6gNMVtjzTpTl0-1" value="" style="ellipse;html=1;shape=endState;fillColor=#000000;strokeColor=none;" parent="1" vertex="1">
          <mxGeometry x="-742" y="355.00000000000006" width="30" height="30" as="geometry" />
        </mxCell>
        <mxCell id="rIHE5OdXVTmZaE9A2tO--1" value="&lt;b&gt;Нейтральное&lt;/b&gt;(idle)" style="rounded=1;whiteSpace=wrap;html=1;" parent="1" vertex="1">
          <mxGeometry x="-686" y="325" width="180" height="90" as="geometry" />
        </mxCell>
        <mxCell id="rIHE5OdXVTmZaE9A2tO--3" value="&lt;b&gt;Прыжок&lt;/b&gt;" style="rounded=1;whiteSpace=wrap;html=1;" parent="1" vertex="1">
          <mxGeometry x="-686" y="100" width="180" height="90" as="geometry" />
        </mxCell>
        <mxCell id="rIHE5OdXVTmZaE9A2tO--5" value="&lt;b style=&quot;border-color: var(--border-color);&quot;&gt;Бег&lt;/b&gt;&lt;br style=&quot;border-color: var(--border-color);&quot;&gt;do/ бежать выбранном направлении" style="rounded=1;whiteSpace=wrap;html=1;" parent="1" vertex="1">
          <mxGeometry x="-147.54" y="325" width="112.54" height="90" as="geometry" />
        </mxCell>
        <mxCell id="rIHE5OdXVTmZaE9A2tO--7" value="&lt;b&gt;Присесть&lt;/b&gt;&lt;br&gt;do/ сидеть на поверхности" style="rounded=1;whiteSpace=wrap;html=1;align=center;" parent="1" vertex="1">
          <mxGeometry x="-676" y="555" width="160" height="100" as="geometry" />
        </mxCell>
        <mxCell id="W43iGgvLMuEYeGEo3oW7-16" value="" style="endArrow=classic;html=1;rounded=0;edgeStyle=orthogonalEdgeStyle;exitX=0.25;exitY=1;exitDx=0;exitDy=0;" parent="1" source="rIHE5OdXVTmZaE9A2tO--1" edge="1">
          <mxGeometry relative="1" as="geometry">
            <mxPoint x="-636" y="510" as="sourcePoint" />
            <mxPoint x="-641" y="550" as="targetPoint" />
          </mxGeometry>
        </mxCell>
        <mxCell id="W43iGgvLMuEYeGEo3oW7-17" value="удерживается «присесть» / персонаж приседает&amp;nbsp;" style="edgeLabel;resizable=0;html=1;align=center;verticalAlign=middle;" parent="W43iGgvLMuEYeGEo3oW7-16" connectable="0" vertex="1">
          <mxGeometry relative="1" as="geometry">
            <mxPoint x="-52" y="-32" as="offset" />
          </mxGeometry>
        </mxCell>
        <mxCell id="W43iGgvLMuEYeGEo3oW7-18" value="" style="endArrow=classic;html=1;rounded=0;edgeStyle=orthogonalEdgeStyle;" parent="1" source="rIHE5OdXVTmZaE9A2tO--7" edge="1">
          <mxGeometry relative="1" as="geometry">
            <mxPoint x="-631" y="425" as="sourcePoint" />
            <mxPoint x="-556" y="415" as="targetPoint" />
            <Array as="points">
              <mxPoint x="-556" y="415" />
            </Array>
          </mxGeometry>
        </mxCell>
        <mxCell id="W43iGgvLMuEYeGEo3oW7-19" value="отпускается «присесть» / персонаж встаёт" style="edgeLabel;resizable=0;html=1;align=center;verticalAlign=middle;" parent="W43iGgvLMuEYeGEo3oW7-18" connectable="0" vertex="1">
          <mxGeometry relative="1" as="geometry">
            <mxPoint x="64" y="35" as="offset" />
          </mxGeometry>
        </mxCell>
        <mxCell id="W43iGgvLMuEYeGEo3oW7-20" value="" style="endArrow=classic;html=1;rounded=0;edgeStyle=orthogonalEdgeStyle;entryX=0;entryY=0.25;entryDx=0;entryDy=0;" parent="1" target="rIHE5OdXVTmZaE9A2tO--5" edge="1">
          <mxGeometry relative="1" as="geometry">
            <mxPoint x="-506" y="355" as="sourcePoint" />
            <mxPoint x="-406" y="355" as="targetPoint" />
            <Array as="points">
              <mxPoint x="-506" y="348" />
              <mxPoint x="-402" y="348" />
            </Array>
          </mxGeometry>
        </mxCell>
        <mxCell id="W43iGgvLMuEYeGEo3oW7-21" value="удерж «бег» [персонаж идет]/ персонаж бежит&amp;nbsp;" style="edgeLabel;resizable=0;html=1;align=center;verticalAlign=middle;" parent="W43iGgvLMuEYeGEo3oW7-20" connectable="0" vertex="1">
          <mxGeometry relative="1" as="geometry" />
        </mxCell>
        <mxCell id="W43iGgvLMuEYeGEo3oW7-23" value="" style="endArrow=classic;html=1;rounded=0;edgeStyle=orthogonalEdgeStyle;exitX=0.013;exitY=0.878;exitDx=0;exitDy=0;exitPerimeter=0;entryX=0.993;entryY=0.86;entryDx=0;entryDy=0;entryPerimeter=0;" parent="1" source="rIHE5OdXVTmZaE9A2tO--5" target="rIHE5OdXVTmZaE9A2tO--1" edge="1">
          <mxGeometry relative="1" as="geometry">
            <mxPoint x="-506" y="385" as="sourcePoint" />
            <mxPoint x="-396" y="450" as="targetPoint" />
          </mxGeometry>
        </mxCell>
        <mxCell id="W43iGgvLMuEYeGEo3oW7-24" value="&amp;nbsp;[персонаж не идет] / персонаж возвр. в нейтрал. сост." style="edgeLabel;resizable=0;html=1;align=center;verticalAlign=middle;" parent="W43iGgvLMuEYeGEo3oW7-23" connectable="0" vertex="1">
          <mxGeometry relative="1" as="geometry" />
        </mxCell>
        <mxCell id="W43iGgvLMuEYeGEo3oW7-27" value="" style="endArrow=classic;html=1;rounded=0;edgeStyle=orthogonalEdgeStyle;exitX=0.5;exitY=0;exitDx=0;exitDy=0;entryX=1;entryY=0.5;entryDx=0;entryDy=0;" parent="1" source="rIHE5OdXVTmZaE9A2tO--5" target="rIHE5OdXVTmZaE9A2tO--3" edge="1">
          <mxGeometry relative="1" as="geometry">
            <mxPoint x="-146" y="90" as="sourcePoint" />
            <mxPoint x="-46" y="90" as="targetPoint" />
          </mxGeometry>
        </mxCell>
        <mxCell id="W43iGgvLMuEYeGEo3oW7-28" value="нажат «прыжок» / персонаж прыгает&amp;nbsp;" style="edgeLabel;resizable=0;html=1;align=center;verticalAlign=middle;" parent="W43iGgvLMuEYeGEo3oW7-27" connectable="0" vertex="1">
          <mxGeometry relative="1" as="geometry">
            <mxPoint x="-84" as="offset" />
          </mxGeometry>
        </mxCell>
        <mxCell id="W43iGgvLMuEYeGEo3oW7-29" value="" style="endArrow=classic;html=1;rounded=0;edgeStyle=orthogonalEdgeStyle;entryX=0.713;entryY=-0.002;entryDx=0;entryDy=0;entryPerimeter=0;exitX=0.713;exitY=1.004;exitDx=0;exitDy=0;exitPerimeter=0;" parent="1" edge="1">
          <mxGeometry relative="1" as="geometry">
            <mxPoint x="-532.0000000000001" y="190.54000000000002" as="sourcePoint" />
            <mxPoint x="-532.0000000000001" y="325.00000000000006" as="targetPoint" />
          </mxGeometry>
        </mxCell>
        <mxCell id="W43iGgvLMuEYeGEo3oW7-30" value="[персонаж [на земле] / персонаж приземлился." style="edgeLabel;resizable=0;html=1;align=center;verticalAlign=middle;" parent="W43iGgvLMuEYeGEo3oW7-29" connectable="0" vertex="1">
          <mxGeometry relative="1" as="geometry">
            <mxPoint x="55" y="22" as="offset" />
          </mxGeometry>
        </mxCell>
        <mxCell id="W43iGgvLMuEYeGEo3oW7-31" value="" style="endArrow=classic;html=1;rounded=0;edgeStyle=orthogonalEdgeStyle;entryX=0.25;entryY=1;entryDx=0;entryDy=0;" parent="1" edge="1">
          <mxGeometry relative="1" as="geometry">
            <mxPoint x="-662" y="320" as="sourcePoint" />
            <mxPoint x="-662" y="190" as="targetPoint" />
          </mxGeometry>
        </mxCell>
        <mxCell id="W43iGgvLMuEYeGEo3oW7-32" value="нажат «прыжок» / персонаж прыгает&amp;nbsp;" style="edgeLabel;resizable=0;html=1;align=center;verticalAlign=middle;" parent="W43iGgvLMuEYeGEo3oW7-31" connectable="0" vertex="1">
          <mxGeometry relative="1" as="geometry">
            <mxPoint y="-35" as="offset" />
          </mxGeometry>
        </mxCell>
        <mxCell id="W43iGgvLMuEYeGEo3oW7-38" value="" style="endArrow=classic;html=1;rounded=0;edgeStyle=orthogonalEdgeStyle;exitX=0.5;exitY=1;exitDx=0;exitDy=0;entryX=1;entryY=0.5;entryDx=0;entryDy=0;" parent="1" source="rIHE5OdXVTmZaE9A2tO--5" target="rIHE5OdXVTmZaE9A2tO--7" edge="1">
          <mxGeometry relative="1" as="geometry">
            <mxPoint x="-312" y="500" as="sourcePoint" />
            <mxPoint x="-342" y="600" as="targetPoint" />
          </mxGeometry>
        </mxCell>
        <mxCell id="W43iGgvLMuEYeGEo3oW7-39" value="удерживается «присесть» / персонаж останавливается и приседает&amp;nbsp;" style="edgeLabel;resizable=0;html=1;align=center;verticalAlign=middle;" parent="W43iGgvLMuEYeGEo3oW7-38" connectable="0" vertex="1">
          <mxGeometry relative="1" as="geometry">
            <mxPoint x="-107" as="offset" />
          </mxGeometry>
        </mxCell>
        <mxCell id="W43iGgvLMuEYeGEo3oW7-41" value="&lt;h1 style=&quot;font-size: 20px;&quot;&gt;&lt;span style=&quot;background-color: initial; font-weight: normal;&quot;&gt;В состоянии &lt;/span&gt;&lt;span style=&quot;background-color: initial;&quot;&gt;Нейтральное(idle):&lt;/span&gt;&lt;/h1&gt;&lt;h1 style=&quot;border-color: var(--border-color); font-size: 16px;&quot;&gt;&lt;span style=&quot;font-weight: normal;&quot;&gt;если игроком удерживается «бег»&amp;nbsp;на устройстве ввода, при условии, что персонаж идёт, то персонаж&amp;nbsp;в игре бежит → переходит в состояние &lt;/span&gt;Бег&lt;span style=&quot;font-weight: normal;&quot;&gt;.&lt;/span&gt;&lt;/h1&gt;&lt;h1 style=&quot;font-size: 16px;&quot;&gt;&lt;span style=&quot;background-color: initial; font-size: 16px; font-weight: normal;&quot;&gt;если игроком нажат «прыжок», то персонаж прыгает → переходит в состояние &lt;/span&gt;&lt;span style=&quot;background-color: initial; font-size: 16px;&quot;&gt;Прыжок&lt;/span&gt;&lt;span style=&quot;background-color: initial; font-size: 16px; font-weight: normal;&quot;&gt;.&lt;/span&gt;&lt;/h1&gt;&lt;div&gt;&lt;h1 style=&quot;border-color: var(--border-color); font-size: 16px;&quot;&gt;&lt;span style=&quot;font-weight: normal;&quot;&gt;если игроком удерживается «присесть», то персонаж приседает→ переходит в состояние &lt;/span&gt;Присесть&lt;span style=&quot;font-weight: normal;&quot;&gt;.&lt;/span&gt;&lt;/h1&gt;&lt;span style=&quot;font-weight: normal;&quot;&gt;&lt;br&gt;&lt;/span&gt;&lt;/div&gt;" style="text;html=1;strokeColor=none;fillColor=none;spacing=5;spacingTop=-20;whiteSpace=wrap;overflow=hidden;rounded=0;fontSize=16;flipV=1;flipH=1;" parent="1" vertex="1">
          <mxGeometry x="-800" y="700" width="400" height="200" as="geometry" />
        </mxCell>
        <mxCell id="W43iGgvLMuEYeGEo3oW7-42" value="&lt;h1 style=&quot;font-size: 20px;&quot;&gt;&lt;span style=&quot;background-color: initial; font-weight: normal;&quot;&gt;В состоянии &lt;/span&gt;&lt;span style=&quot;background-color: initial;&quot;&gt;Бег:&lt;/span&gt;&lt;/h1&gt;&lt;h1 style=&quot;border-color: var(--border-color); font-size: 16px;&quot;&gt;&lt;span style=&quot;font-weight: normal;&quot;&gt;если персонаж не идет, то персонаж&amp;nbsp;в игре останавливается → переходит в состояние&amp;nbsp;&lt;/span&gt;Нейтральное(idle).&lt;/h1&gt;&lt;h1 style=&quot;font-size: 16px;&quot;&gt;&lt;span style=&quot;font-weight: normal;&quot;&gt;если игроком нажат «прыжок», то персонаж прыгает → переходит в состояние &lt;/span&gt;&lt;span style=&quot;background-color: initial; font-size: 16px;&quot;&gt;Прыжок&lt;/span&gt;&lt;span style=&quot;font-weight: normal; background-color: initial; font-size: 16px;&quot;&gt;.&lt;/span&gt;&lt;/h1&gt;&lt;div&gt;&lt;h1 style=&quot;border-color: var(--border-color); font-size: 16px;&quot;&gt;&lt;span style=&quot;font-weight: normal;&quot;&gt;если игроком удерживается «присесть», то персонаж останавливается и приседает→ переходит в состояние &lt;/span&gt;Присесть&lt;span style=&quot;font-weight: normal;&quot;&gt;.&lt;/span&gt;&lt;/h1&gt;&lt;span style=&quot;font-weight: normal;&quot;&gt;&lt;br&gt;&lt;/span&gt;&lt;/div&gt;" style="text;html=1;strokeColor=none;fillColor=none;spacing=5;spacingTop=-20;whiteSpace=wrap;overflow=hidden;rounded=0;fontSize=16;flipV=1;flipH=1;" parent="1" vertex="1">
          <mxGeometry x="-800" y="925" width="390" height="200" as="geometry" />
        </mxCell>
        <mxCell id="W43iGgvLMuEYeGEo3oW7-43" value="&lt;h1 style=&quot;font-size: 20px;&quot;&gt;&lt;span style=&quot;background-color: initial; font-weight: normal;&quot;&gt;В состоянии &lt;/span&gt;&lt;span style=&quot;background-color: initial;&quot;&gt;Прыжок:&lt;/span&gt;&lt;/h1&gt;&lt;h1 style=&quot;border-color: var(--border-color); font-size: 16px;&quot;&gt;&lt;span style=&quot;font-weight: normal;&quot;&gt;если персонаж на земле, то персонаж приземлился → переходит в состояние&amp;nbsp;&lt;/span&gt;Нейтральное(idle).&lt;/h1&gt;&lt;h1 style=&quot;font-size: 16px;&quot;&gt;&lt;br&gt;&lt;/h1&gt;&lt;div&gt;&lt;span style=&quot;font-weight: normal;&quot;&gt;&lt;br&gt;&lt;/span&gt;&lt;/div&gt;" style="text;html=1;strokeColor=none;fillColor=none;spacing=5;spacingTop=-20;whiteSpace=wrap;overflow=hidden;rounded=0;fontSize=16;flipV=1;flipH=1;" parent="1" vertex="1">
          <mxGeometry x="-340" y="700" width="340" height="100" as="geometry" />
        </mxCell>
        <mxCell id="W43iGgvLMuEYeGEo3oW7-44" value="&lt;h1 style=&quot;font-size: 20px;&quot;&gt;&lt;span style=&quot;background-color: initial; font-weight: normal;&quot;&gt;В состоянии &lt;/span&gt;&lt;span style=&quot;background-color: initial;&quot;&gt;Присесть:&lt;/span&gt;&lt;/h1&gt;&lt;h1 style=&quot;border-color: var(--border-color); font-size: 16px;&quot;&gt;&lt;span style=&quot;font-weight: normal;&quot;&gt;если игрок отпускает «присесть», то персонаж встаёт → переходит в состояние&amp;nbsp;&lt;/span&gt;Нейтральное(idle).&lt;/h1&gt;&lt;h1 style=&quot;font-size: 16px;&quot;&gt;&lt;br&gt;&lt;/h1&gt;&lt;div&gt;&lt;span style=&quot;font-weight: normal;&quot;&gt;&lt;br&gt;&lt;/span&gt;&lt;/div&gt;" style="text;html=1;strokeColor=none;fillColor=none;spacing=5;spacingTop=-20;whiteSpace=wrap;overflow=hidden;rounded=0;fontSize=16;flipV=1;flipH=1;" parent="1" vertex="1">
          <mxGeometry x="-340" y="845" width="330" height="105" as="geometry" />
        </mxCell>
      </root>
    </mxGraphModel>
  </diagram>
</mxfile>
